Coordinates
version=1
nRows=14
nColumns=40
inDegrees=yes

Units are S.I. units (second, meters, Newtons, ...)
Angles are in degrees.

endheader
time	pelvis_tilt	pelvis_list	pelvis_rotation	pelvis_tx	pelvis_ty	pelvis_tz	hip_flexion_r	hip_adduction_r	hip_rotation_r	knee_angle_r	knee_angle_r_beta	ankle_angle_r	subtalar_angle_r	mtp_angle_r	hip_flexion_l	hip_adduction_l	hip_rotation_l	knee_angle_l	knee_angle_l_beta	ankle_angle_l	subtalar_angle_l	mtp_angle_l	lumbar_extension	lumbar_bending	lumbar_rotation	arm_flex_r	arm_add_r	arm_rot_r	elbow_flex_r	pro_sup_r	wrist_flex_r	wrist_dev_r	arm_flex_l	arm_add_l	arm_rot_l	elbow_flex_l	pro_sup_l	wrist_flex_l	wrist_dev_l
     51.26928571	     -2.33874981	     -5.51996223	      2.25362808	      1.09662762	      0.93495746	      0.51827664	      5.07323796	      5.43939686	    -20.39371369	     12.44592754	     12.44592754	     12.22355614	      7.95559493	     -3.86646848	     34.10259385	    -14.76916665	     -3.55563031	     39.01981284	     39.01981284	      8.67645830	    -14.37505582	     11.96946040	    -10.64553002	      9.59058648	      4.91353881	     39.16339338	    -13.00991288	    -12.31902350	     46.90573994	     46.17065832	      0.00000000	      0.00000000	     -2.15078665	     -5.14568688	     -1.25136152	     29.86740005	     46.33302932	      0.00000000	      0.00000000
     51.28107143	     -2.52927627	     -5.55420286	      2.16847621	      1.09517626	      0.93422858	      0.51840588	      4.36478228	      5.62676111	    -20.34073489	     11.76466857	     11.76466857	     12.51180518	      8.44878150	     -3.94533438	     34.39876778	    -14.53676431	     -3.72640694	     35.32189293	     35.32189293	      8.18746764	    -13.01731110	     11.82637100	    -10.53289877	      9.65071251	      5.18703556	     40.71264654	    -12.98544108	    -11.24672819	     50.75522893	     45.97470049	      0.00000000	      0.00000000	     -3.02929050	     -4.83055375	     -0.59414817	     26.84975412	     46.20526701	      0.00000000	      0.00000000
     51.29285714	     -2.75114690	     -5.56619803	      2.01994109	      1.09386756	      0.93337886	      0.51852153	      3.70161978	      5.77107064	    -20.21483342	     11.13972693	     11.13972693	     12.83562680	      8.95129199	     -4.08727240	     34.56325727	    -14.29048139	     -3.99854912	     31.60329804	     31.60329804	      7.69590135	    -11.48445474	     11.51052985	    -10.40242411	      9.58264286	      6.09100707	     41.38619703	    -13.83711940	     -9.79437968	     55.87033908	     45.71559499	      0.00000000	      0.00000000	     -3.58037187	     -4.66964584	      0.52193443	     23.82683838	     45.98571551	      0.00000000	      0.00000000
     51.30464286	     -2.93282887	     -5.53386266	      1.91045807	      1.09268863	      0.93247727	      0.51852644	      2.97914652	      5.87687700	    -20.06393996	     10.51633387	     10.51633387	     13.22270533	      9.25388933	     -4.13514603	     34.68379314	    -13.98580308	     -4.35613132	     28.16527371	     28.16527371	      7.52541001	     -9.85970339	     12.06676765	    -10.24053940	      9.48850066	      5.89234109	     43.53130067	    -13.14831709	     -9.54897089	     57.94463279	     45.64053324	      0.00000000	      0.00000000	     -5.27182430	     -4.66567430	      0.76619682	     22.72309085	     45.90710309	      0.00000000	      0.00000000
     51.31642857	     -3.11230745	     -5.60215024	      1.81858881	      1.09164417	      0.93143612	      0.51841649	      2.18563551	      6.09244111	    -19.97590120	      9.76194434	      9.76194434	     13.54299971	      9.76337369	     -4.14426708	     34.84741740	    -13.77840245	     -4.70592685	     25.10432038	     25.10432038	      7.47379373	     -8.09055074	     12.59477515	    -10.12512672	      9.51415989	      5.55061139	     45.52986505	    -12.35370930	     -9.04714550	     60.66373890	     45.53321717	      0.00000000	      0.00000000	     -6.89630803	     -4.61486602	      1.10387216	     21.56845916	     45.80961846	      0.00000000	      0.00000000
     51.32821429	     -3.33281637	     -5.66892397	      1.72565001	      1.09068062	      0.93025302	      0.51822559	      1.47888090	      6.28178874	    -19.88770323	      9.10693535	      9.10693535	     13.90725525	     10.21623477	     -4.16905260	     35.04126038	    -13.55865732	     -5.10668935	     22.39501091	     22.39501091	      7.46596492	     -6.45556168	     13.16233631	     -9.91669042	      9.52982258	      5.41292801	     47.32132396	    -11.77392437	     -8.49946398	     63.28889815	     45.42910249	      0.00000000	      0.00000000	     -8.39038425	     -4.55840523	      1.39524071	     20.66912222	     45.71972405	      0.00000000	      0.00000000
     51.34000000	     -3.52761737	     -5.77908101	      1.63283370	      1.08988906	      0.92896298	      0.51790220	      0.72093632	      6.49773715	    -19.87870684	      8.44254645	      8.44254645	     14.29443733	     10.84344289	     -3.97806843	     35.38517438	    -13.42267841	     -5.62962049	     20.45868051	     20.45868051	      7.91687837	     -4.82951834	     14.34732384	     -9.87266179	      9.60940747	      6.01984667	     47.82226907	    -12.67064704	     -6.95655237	     69.33125521	     45.18217126	      0.00000000	      0.00000000	     -9.59012240	     -4.72554646	      3.16170022	     19.99240675	     45.29461745	      0.00000000	      0.00000000
     51.35178571	     -3.77191313	     -5.85325456	      1.51722456	      1.08911720	      0.92757225	      0.51745940	      0.15441871	      6.62972099	    -19.73195094	      8.04371845	      8.04371845	     14.69723867	     11.08434360	     -4.01466373	     35.64007167	    -13.18011676	     -5.99832243	     18.72134790	     18.72134790	      7.96471633	     -3.91427535	     14.71995260	     -9.61310335	      9.60371886	      5.90530726	     49.73136004	    -12.10629566	     -6.73970619	     71.04683799	     45.12684964	      0.00000000	      0.00000000	    -11.00529332	     -4.69055757	      3.36590795	     19.43224293	     45.22046325	      0.00000000	      0.00000000
     51.36357143	     -3.89197701	     -5.87526044	      1.41572073	      1.08866339	      0.92633551	      0.51685675	     -0.60022924	      6.69157969	    -19.65916046	      7.60637735	      7.60637735	     15.25652239	     11.59040260	     -3.34923775	     35.86004730	    -12.95065540	     -6.56438280	     17.74839336	     17.74839336	      8.48926514	     -3.02849211	     15.76646722	     -9.55045820	      9.57859122	      6.01077867	     50.64216864	    -12.19277864	     -5.84978515	     75.38873945	     45.12100343	      0.00000000	      0.00000000	    -13.20501424	     -5.90318785	     12.47844641	     21.09392288	     43.41756678	      0.00000000	      0.00000000
     51.37535714	     -4.04945188	     -5.88988351	      1.29397687	      1.08827862	      0.92494425	      0.51613267	     -1.19493969	      6.70144573	    -19.48437736	      7.38677725	      7.38677725	     15.67488712	     11.73265350	     -3.39075028	     35.99553412	    -12.65640231	     -6.90371503	     17.04627627	     17.04627627	      8.59864546	     -2.86666591	     15.84245217	     -9.37897954	      9.50821339	      5.69570234	     52.24301500	    -11.55558215	     -5.39201371	     77.48029894	     45.04653250	      0.00000000	      0.00000000	    -14.71339714	     -5.86826693	     12.51579263	     20.81245386	     43.40610195	      0.00000000	      0.00000000
     51.38714286	     -4.23898068	     -5.89381622	      1.17663825	      1.08803342	      0.92342650	      0.51518987	     -1.71913150	      6.66405323	    -19.31549357	      7.25496271	      7.25496271	     16.13017556	     11.86130246	     -3.28402075	     36.19540634	    -12.34648128	     -7.14419995	     16.91028468	     16.91028468	      8.65539901	     -3.11774729	     15.76444447	     -9.16750874	      9.44801602	      5.51123829	     53.47818375	    -11.36438441	     -4.63264035	     80.25160523	     44.94324650	      0.00000000	      0.00000000	    -16.19898516	     -5.87779186	     12.48367658	     21.12499063	     43.41587924	      0.00000000	      0.00000000
     51.39892857	     -4.38290294	     -5.88717143	      1.00794682	      1.08801373	      0.92193521	      0.51417971	     -2.20428089	      6.56279113	    -19.13282043	      7.34115976	      7.34115976	     16.70829728	     11.94598884	     -2.93089595	     36.20453499	    -12.02577796	     -7.20277270	     17.04078215	     17.04078215	      8.62056763	     -3.78832459	     15.40844679	     -9.01580903	      9.32820155	      5.75716195	     54.27335460	    -11.85216656	     -3.75252228	     83.49892202	     44.83221270	      0.00000000	      0.00000000	    -17.64943358	     -6.10631746	     12.42142836	     22.06233718	     43.46511974	      0.00000000	      0.00000000
     51.41071429	     -4.47482669	     -5.85619364	      0.83908844	      1.08816805	      0.92042115	      0.51298618	     -2.72224466	      6.40941931	    -18.92168535	      7.48088627	      7.48088627	     17.17427395	     11.95168009	     -2.93649389	     36.15211222	    -11.71538937	     -7.29459841	     17.61869243	     17.61869243	      8.63028394	     -4.48988122	     15.20758361	     -8.82044115	      9.22527351	      5.63616280	     55.52799545	    -11.56074362	     -3.52216882	     84.98963760	     44.78595699	      0.00000000	      0.00000000	    -18.73836458	     -6.05947964	     12.45658919	     21.88892810	     43.45367513	      0.00000000	      0.00000000
     51.42250000	     -4.63722455	     -5.80659284	      0.64956272	      1.08850852	      0.91879206	      0.51163358	     -3.10014251	      6.18455802	    -18.72665125	      7.79219742	      7.79219742	     17.85065101	     11.94690510	     -2.39245617	     35.95365810	    -11.30123065	     -6.98911909	     18.11640736	     18.11640736	      8.03331465	     -5.79157571	     14.39144532	     -8.62154926	      9.07873673	      5.77693478	     55.96702948	    -12.09323692	     -2.62876309	     88.45267933	     44.67616289	      0.00000000	      0.00000000	    -20.05216163	     -6.24547387	     12.37922288	     22.90230331	     43.51909190	      0.00000000	      0.00000000
